<svg width="61" height="60" viewBox="0 0 61 60" fill="none" xmlns="http://www.w3.org/2000/svg">
<path d="M25.8488 33.6032C27.295 35.1279 28.8748 36.5233 30.5698 37.773C32.4029 39.1196 34.3455 40.314 36.3779 41.3442L36.4623 41.2854C36.6112 41.1676 36.78 41.0156 36.9587 40.8439C37.1374 40.6722 37.2565 40.525 37.4154 40.3533L37.9763 39.6322C38.0258 39.5568 38.0823 39.4862 38.1451 39.4213C40.2847 36.6349 42.9505 33.2844 47.2395 35.2466C47.3285 35.283 47.4148 35.3257 47.4977 35.3742C50.9726 37.4051 54.5369 39.3722 58.0416 41.3639C58.1288 41.4089 58.2119 41.4614 58.2898 41.5208C59.1579 42.1033 59.8549 42.9021 60.3102 43.8363C60.7605 44.7986 60.991 45.847 60.9854 46.9071V46.9071C60.9748 47.9215 60.8177 48.9291 60.5187 49.8995C60.204 50.9356 59.771 51.933 59.2281 52.8723C58.5582 54.0431 57.6862 55.089 56.6516 55.9628C55.6751 56.7858 54.5833 57.4649 53.41 57.979H53.3852C52.3194 58.4544 51.213 58.8352 50.079 59.1171C48.978 59.3946 47.8628 59.614 46.7381 59.7745C45.0179 60.0288 43.2733 60.0815 41.5406 59.9314C39.8276 59.7806 38.1353 59.4518 36.492 58.9503C34.8067 58.4226 33.1652 57.7665 31.5825 56.9881C29.8548 56.1457 28.1715 55.2173 26.5388 54.2066L26.1218 53.9515C24.5978 53.0146 22.9547 51.9893 21.2917 50.7776C17.8619 48.2077 14.7021 45.3037 11.8597 42.1095C9.10308 39.0304 6.68982 35.6671 4.66164 32.0776C2.85635 28.9138 1.51898 25.5107 0.69029 21.9721C-0.054714 18.8256 -0.189471 15.5681 0.293155 12.372C0.586165 10.4781 1.19333 8.64495 2.09019 6.94639C2.92749 5.36367 4.08291 3.96649 5.4857 2.84043C6.87561 1.73934 8.48394 0.938828 10.2066 0.490666C12.0277 0.0310721 13.9161 -0.110048 15.7864 0.0736932C16.2848 0.105343 16.7667 0.262389 17.1863 0.529911C17.5984 0.793127 17.9392 1.15181 18.1791 1.5748L24.8609 12.7546C25.4495 13.5048 25.834 14.3914 25.9779 15.33C26.0968 16.2636 25.956 17.2117 25.5708 18.0722V18.0722C25.2526 18.7846 24.8164 19.4395 24.2801 20.0099C23.7497 20.5753 23.1644 21.0879 22.5327 21.5405C22.1704 21.8495 21.7136 22.1782 21.2371 22.5216L21.1924 22.5559C20.6268 22.9395 20.0908 23.3642 19.589 23.8265C19.3929 23.983 19.2394 24.1853 19.1422 24.4151C19.1422 24.4691 19.1869 24.4151 19.2365 24.4985L19.4053 24.7585C19.9663 25.6268 21.0484 27.2849 22.2845 29.046C23.3723 30.6423 24.5628 32.1678 25.8488 33.6131V33.6032ZM28.5543 40.422C26.7077 39.0589 24.9837 37.5407 23.4015 35.8843C21.9958 34.3212 20.6989 32.6659 19.5195 30.9297C18.2884 29.1735 17.1565 27.4419 16.5707 26.5147L16.4268 26.3038C16.1778 26.0014 15.9921 25.6531 15.8805 25.2792C15.7689 24.9053 15.7335 24.5132 15.7765 24.1257C15.9081 23.0906 16.4141 22.1376 17.2012 21.4423C17.828 20.8551 18.5002 20.3171 19.2117 19.8333V19.8333C19.6088 19.5488 19.9861 19.2741 20.3286 18.9847L20.4329 18.9062C20.9148 18.5731 21.3591 18.1899 21.7583 17.7632C22.0445 17.4608 22.2792 17.1145 22.4533 16.7379C22.5966 16.4315 22.6532 16.0924 22.6171 15.7568C22.543 15.3758 22.3722 15.0196 22.1207 14.7217C22.0594 14.6526 22.0061 14.5769 21.9619 14.4961L15.3496 3.36533C13.9157 3.23648 12.4701 3.35096 11.0754 3.70381C9.8061 4.0315 8.62168 4.62173 7.60045 5.43548C6.55381 6.27944 5.69091 7.32405 5.06374 8.50636C4.3441 9.88046 3.85775 11.362 3.62413 12.8919C3.20578 15.6685 3.32369 18.4982 3.97162 21.2314C4.73931 24.4617 5.9696 27.5671 7.62527 30.4539C9.53119 33.8245 11.8015 36.9809 14.3964 39.8677C17.0896 42.8919 20.0831 45.6413 23.332 48.0747C24.8212 49.1882 26.4396 50.1743 27.9288 51.0867L28.3508 51.3516C29.8791 52.2992 31.4548 53.1703 33.0717 53.9614C34.4966 54.6631 35.9756 55.252 37.4948 55.7225C38.911 56.1618 40.3704 56.4512 41.8484 56.5858C43.3215 56.7108 44.8043 56.6647 46.2665 56.4485C47.2693 56.3093 48.2636 56.116 49.2451 55.8696C50.1866 55.637 51.1054 55.3218 51.9903 54.9278H52.0349C52.9175 54.5413 53.7399 54.0325 54.4773 53.4168C55.2141 52.7934 55.8356 52.0481 56.3141 51.2142C56.73 50.4962 57.063 49.7344 57.3069 48.943C57.5119 48.2761 57.6222 47.5844 57.6345 46.8875C57.6471 46.3228 57.53 45.7626 57.292 45.2491C57.0913 44.8323 56.781 44.4765 56.3935 44.2189C53.7079 42.3204 48.9919 40.005 45.9687 38.2783L45.8247 38.2047L45.8843 38.2341L45.8247 38.2047C43.9632 37.3854 42.2356 39.5537 40.8308 41.3835L40.7464 41.5012C40.5031 41.8201 40.2499 42.1291 40.0514 42.394C39.8528 42.6589 39.555 42.9827 39.3564 43.1789C39.089 43.4427 38.8055 43.6901 38.5075 43.9197C38.1713 44.1705 37.8023 44.3751 37.4104 44.5279C37.0396 44.6721 36.6417 44.7357 36.2438 44.7144C35.9013 44.6914 35.5655 44.6101 35.251 44.474L35.0921 44.4053C32.8029 43.2625 30.6158 41.9299 28.5543 40.422V40.422Z" fill="white"/>
</svg>
