<svg width="91" height="92" viewBox="0 0 91 92" fill="none" xmlns="http://www.w3.org/2000/svg">
<path d="M45.5148 0C26.519 0 20.9635 0.0198171 19.8836 0.110409C15.9853 0.438099 13.5596 1.0588 10.9169 2.38937C8.88024 3.41207 7.27404 4.59756 5.68884 6.25936C2.80188 9.28996 1.05221 13.0184 0.418832 17.4503C0.11089 19.6019 0.0213071 20.0407 0.00311053 31.0307C-0.00388816 34.694 0.00311053 39.5152 0.00311053 45.982C0.00311053 65.1762 0.0241066 70.7887 0.115089 71.8786C0.43003 75.7146 1.02492 78.1281 2.28468 80.768C4.69223 85.8213 9.29036 89.6149 14.7073 91.0304C16.583 91.5187 18.6546 91.7877 21.3141 91.9151C22.4409 91.9646 33.9257 92 45.4176 92C56.9094 92 68.4012 91.9859 69.5 91.9292C72.5795 91.7827 74.3676 91.54 76.3448 91.0233C81.7967 89.6007 86.3109 85.8638 88.7674 80.7397C90.0027 78.1634 90.6291 75.658 90.9125 72.0223C90.9741 71.2296 91 58.5913 91 45.9699C91 33.3465 90.972 20.7315 90.9104 19.9388C90.6235 16.2443 89.9971 13.7601 88.7219 11.1344C87.6756 8.98491 86.5138 7.37973 84.8272 5.73845C81.817 2.83101 78.1357 1.06163 73.7489 0.42182C71.6234 0.111117 71.2 0.0191093 60.3241 0H45.5148Z" fill="url(#paint0_radial_637_432)"/>
<path d="M45.5148 0C26.519 0 20.9635 0.0198171 19.8836 0.110409C15.9853 0.438099 13.5596 1.0588 10.9169 2.38937C8.88024 3.41207 7.27404 4.59756 5.68884 6.25936C2.80188 9.28996 1.05221 13.0184 0.418832 17.4503C0.11089 19.6019 0.0213071 20.0407 0.00311053 31.0307C-0.00388816 34.694 0.00311053 39.5152 0.00311053 45.982C0.00311053 65.1762 0.0241066 70.7887 0.115089 71.8786C0.43003 75.7146 1.02492 78.1281 2.28468 80.768C4.69223 85.8213 9.29036 89.6149 14.7073 91.0304C16.583 91.5187 18.6546 91.7877 21.3141 91.9151C22.4409 91.9646 33.9257 92 45.4176 92C56.9094 92 68.4012 91.9859 69.5 91.9292C72.5795 91.7827 74.3676 91.54 76.3448 91.0233C81.7967 89.6007 86.3109 85.8638 88.7674 80.7397C90.0027 78.1634 90.6291 75.658 90.9125 72.0223C90.9741 71.2296 91 58.5913 91 45.9699C91 33.3465 90.972 20.7315 90.9104 19.9388C90.6235 16.2443 89.9971 13.7601 88.7219 11.1344C87.6756 8.98491 86.5138 7.37973 84.8272 5.73845C81.817 2.83101 78.1357 1.06163 73.7489 0.42182C71.6234 0.111117 71.2 0.0191093 60.3241 0H45.5148Z" fill="url(#paint1_radial_637_432)"/>
<path d="M66.6607 45.5402C66.6607 57.65 56.9576 67.4202 45.0457 67.4202C33.1337 67.4202 23.4307 57.65 23.4307 45.5402C23.4307 33.4303 33.1337 23.6602 45.0457 23.6602C56.9576 23.6602 66.6607 33.4303 66.6607 45.5402Z" stroke="white" stroke-width="5"/>
<path d="M74.8504 20.2403C74.8504 22.4421 73.092 24.1803 70.9804 24.1803C68.8687 24.1803 67.1104 22.4421 67.1104 20.2403C67.1104 18.0385 68.8687 16.3003 70.9804 16.3003C73.092 16.3003 74.8504 18.0385 74.8504 20.2403Z" stroke="white" stroke-width="5"/>
<rect x="2.5" y="2.5" width="86" height="87" rx="17.5" stroke="white" stroke-width="5"/>
<defs>
<radialGradient id="paint0_radial_637_432" cx="0" cy="0" r="1" gradientUnits="userSpaceOnUse" gradientTransform="translate(24.172 99.0859) rotate(-90) scale(91.1788 83.8817)">
<stop stop-color="#FFDD55"/>
<stop offset="0.1" stop-color="#FFDD55"/>
<stop offset="0.5" stop-color="#FF543E"/>
<stop offset="1" stop-color="#C837AB"/>
</radialGradient>
<radialGradient id="paint1_radial_637_432" cx="0" cy="0" r="1" gradientUnits="userSpaceOnUse" gradientTransform="translate(-15.243 6.62753) rotate(78.8006) scale(40.7403 166.246)">
<stop stop-color="#3771C8"/>
<stop offset="0.128" stop-color="#3771C8"/>
<stop offset="1" stop-color="#6600FF" stop-opacity="0"/>
</radialGradient>
</defs>
</svg>
