<svg width="100" height="100" viewBox="0 0 100 100" fill="none" xmlns="http://www.w3.org/2000/svg">
<path d="M99.6981 29.3834C99.4481 24.0605 98.6043 20.4271 97.375 17.2478C96.0937 13.9593 94.3854 11.1697 91.6041 8.39064C88.8228 5.60936 86.0416 3.90103 82.75 2.62498C79.5624 1.38852 75.9268 0.545827 70.6039 0.30208M99.6981 29.3834L98.1996 29.4507M99.6981 29.3834L98.1998 29.4538C98.1997 29.4527 98.1997 29.4517 98.1996 29.4507M99.6981 29.3834C99.9377 34.7165 100 36.4208 100 49.9998C100 63.5792 99.9377 65.2792 99.6981 70.6123C99.4481 75.9333 98.6043 79.5675 97.375 82.7478C96.0937 86.0353 94.3854 88.8248 91.6041 91.6039C88.826 94.3854 86.0405 96.0978 82.753 97.3748C79.5718 98.6113 75.9341 99.454 70.6111 99.6979C65.2779 99.9404 63.579 100 49.9984 100C36.4202 100 34.717 99.9404 29.3836 99.6979M98.1996 29.4507C97.9561 24.2713 97.1402 20.8004 95.9766 17.7905M98.1996 29.4507C98.4377 34.7508 98.5 36.4293 98.5 49.9998C98.5 63.5705 98.4377 65.2448 98.1997 70.5448L98.1996 70.545C97.9561 75.7227 97.1401 79.1946 95.9764 82.2058C94.7647 85.3136 93.1663 87.9225 90.5439 90.5429L90.5428 90.5439C87.9217 93.1683 85.3161 94.77 82.2098 95.9766L82.2095 95.9767C79.199 97.1468 75.7244 97.962 70.543 98.1994L70.6106 99.6866L70.5424 98.1994C65.2435 98.4404 63.5707 98.5 49.9984 98.5C36.4285 98.5 34.7514 98.4404 29.4522 98.1994M95.9766 17.7905C95.9769 17.7911 95.9771 17.7918 95.9774 17.7924L97.3747 17.248L95.976 17.7888C95.9762 17.7893 95.9764 17.7899 95.9766 17.7905ZM95.9766 17.7905C94.765 14.6813 93.1665 12.0723 90.5439 9.45172L90.5434 9.4513C87.9191 6.82691 85.3178 5.22922 82.2078 4.02356L82.2076 4.02346C79.1897 2.85285 75.7168 2.03782 70.5357 1.80053L70.6039 0.30208M70.6039 0.30208L70.5352 1.80051M70.6039 0.30208C65.2727 0.0594471 63.5738 4.61652e-05 50.0048 0V1.5M70.5352 1.80051L50.0048 1.5M70.5352 1.80051C65.2384 1.55944 63.5657 1.50005 50.0048 1.5M70.5352 1.80051L50.0048 1.5M29.3836 99.6979L29.4522 98.1994M29.3836 99.6979L29.4517 98.1994C29.4519 98.1994 29.452 98.1994 29.4522 98.1994M29.3836 99.6979C24.0617 99.454 20.4274 98.6113 17.246 97.3748C13.9595 96.0978 11.1699 94.3854 8.39163 91.6039C5.61152 88.8248 3.90318 86.0353 2.62504 82.7467L4.02319 82.2034M29.4522 98.1994C24.2718 97.9621 20.8005 97.1469 17.7894 95.9767L17.7893 95.9766C14.6834 94.7698 12.0739 93.1678 9.4529 90.5439L9.4521 90.5431C6.82996 87.9219 5.23159 85.3125 4.02319 82.2034M4.02319 82.2034L2.62571 82.7465L4.02316 82.2033C2.85391 79.1944 2.03879 75.7241 1.8005 70.5426C1.5604 65.2435 1.5 63.5703 1.5 49.9998C1.5 36.4297 1.56246 34.75 1.79954 29.4498L4.02319 82.2034ZM17.7959 4.02298L17.7952 4.02325C14.6863 5.23056 12.0769 6.82882 9.45573 9.45109L9.45511 9.45172C6.83196 12.0728 5.23331 14.6825 4.0216 17.7915L4.02159 17.7915C2.84872 20.8006 2.03274 24.2711 1.79956 29.4493L17.7959 4.02298ZM17.7959 4.02298C20.8045 2.85288 24.2747 2.03782 29.456 1.80053L17.7959 4.02298ZM70.2772 7.79939L70.2776 7.79941C75.3181 8.02989 78.1241 8.8792 80.0356 9.62163C82.5611 10.6024 84.4014 11.8 86.2992 13.6987C86.2992 13.6987 86.2993 13.6988 86.2993 13.6988M70.2772 7.79939L86.2993 13.6988M70.2772 7.79939C64.9703 7.55825 63.3607 7.51049 50.0048 7.51049C49.4296 7.51049 48.8753 7.51023 48.3412 7.50998C47.886 7.50977 47.4455 7.50957 47.0193 7.50954V7.49618L45.5176 7.49786C36.1841 7.50836 34.3737 7.57116 29.7327 7.78057L29.7315 7.78063C24.693 8.01212 21.8853 8.85903 19.9716 9.60539C17.4476 10.5879 15.6043 11.785 13.7051 13.6842C11.8066 15.5827 10.6067 17.4261 9.62586 19.9517L9.62581 19.9519C8.88375 21.8632 8.03412 24.6691 7.80364 29.7096L7.80362 29.7101C7.56247 35.0158 7.51471 36.6181 7.51471 49.9759C7.51471 63.3337 7.56247 64.9446 7.80362 70.2504L7.80363 70.2506C8.03329 75.2914 8.88379 78.0975 9.62603 80.007L9.62621 80.0075C10.6092 82.5337 11.8067 84.3725 13.7051 86.2709C15.6043 88.1701 17.4479 89.3674 19.9726 90.3482L19.9732 90.3484C21.8853 91.0903 24.6909 91.9396 29.7312 92.1723L29.7323 92.1723C35.0376 92.4135 36.6469 92.4656 50.0048 92.4656C63.3617 92.4656 64.9719 92.4135 70.2772 92.1723L70.2776 92.1723C75.315 91.942 78.124 91.0954 80.0361 90.3489C82.5628 89.368 84.4009 88.1702 86.2989 86.2723M70.2772 7.79939L86.2994 13.6989M86.2993 13.6988C86.2994 13.6988 86.2994 13.6989 86.2994 13.6989M86.2993 13.6988L86.2994 13.6989M86.2994 13.6989C88.1984 15.598 89.3955 17.4412 90.378 19.9651L90.3783 19.9658C91.1205 21.8753 91.971 24.6815 92.2004 29.7223L92.2004 29.7224C92.4416 35.0276 92.4936 36.638 92.4936 49.9886C92.4936 63.3388 92.4416 64.9492 92.2004 70.2544L92.2004 70.2549C91.97 75.2949 91.1207 78.101 90.3784 80.0108C89.3969 82.5373 88.1969 84.3755 86.2989 86.2723M86.2994 13.6989L85.2385 14.7593C86.9885 16.5093 88.0719 18.176 88.9802 20.5093C89.6645 22.2697 90.4801 24.9156 90.702 29.7905C90.9415 35.0613 90.9936 36.6448 90.9936 49.9886C90.9936 63.3321 90.9415 64.9155 90.702 70.1863L86.2994 13.6989ZM86.2989 86.2723L85.2447 85.2175L86.2992 86.272C86.2991 86.2721 86.299 86.2722 86.2989 86.2723ZM29.4565 1.80051C34.7536 1.55944 36.4322 1.50005 49.989 1.5L29.4565 1.80051ZM76.6947 18.8126H76.8349C79.2542 18.8867 81.1947 20.8733 81.1947 23.3104C81.1947 25.7944 79.1787 27.8103 76.6947 27.8103C74.2106 27.8103 72.1946 25.7944 72.1946 23.3104C72.1946 20.8262 74.2097 18.8126 76.6947 18.8126ZM25.8273 49.9998C25.8273 36.6486 36.6521 25.8234 50.0038 25.8228H50.0048C63.356 25.8234 74.1779 36.6483 74.1779 49.9998C74.1779 63.3517 63.3568 74.1717 50.0048 74.1717C36.6523 74.1717 25.8273 63.3514 25.8273 49.9998ZM68.1715 49.9998C68.1715 39.9664 60.0375 31.8334 50.0048 31.8334C39.9711 31.8334 31.8379 39.9664 31.8379 49.9998C31.8379 60.0324 39.971 68.1666 50.0048 68.1666C60.0376 68.1666 68.1715 60.0324 68.1715 49.9998ZM82.7433 2.64222L82.7434 2.64212L82.7433 2.64222Z" stroke="white" stroke-width="3"/>
</svg>
